<?xml version="1.0" encoding="UTF-8" standalone="no"?>
<svg
   xmlns:dc="http://purl.org/dc/elements/1.1/"
   xmlns:cc="http://creativecommons.org/ns#"
   xmlns:rdf="http://www.w3.org/1999/02/22-rdf-syntax-ns#"
   xmlns:svg="http://www.w3.org/2000/svg"
   xmlns="http://www.w3.org/2000/svg"
   version="1.1"
   id="svg8883"
   viewBox="0 0 24.999999 24.999999"
   height="25"
   width="25">
  <defs
     id="defs8885">
    <clipPath
       id="clip9718">
      <path
         d="m 250,346 5,0 0,5 -5,0 z m 0,0"
         id="path30075" />
    </clipPath>
    <clipPath
       id="clip9719">
      <path
         d="m 240.44141,344.57812 c -0.9375,0 -1.70704,0.76563 -1.70704,1.70704 l 0,50.41796 c 0,0.94141 0.76954,1.70704 1.70704,1.70704 l 31.66796,0 c 0.9375,0 1.70704,-0.76563 1.70704,-1.70704 l 0,-50.41796 c 0,-0.94141 -0.76954,-1.70704 -1.70704,-1.70704 z m 0,0"
         id="path30078" />
    </clipPath>
    <clipPath
       id="clip9720">
      <path
         d="m 251,346 3,0 0,5 -3,0 z m 0,0"
         id="path30081" />
    </clipPath>
    <clipPath
       id="clip9721">
      <path
         d="m 240.44141,344.57812 c -0.9375,0 -1.70704,0.76563 -1.70704,1.70704 l 0,50.41796 c 0,0.94141 0.76954,1.70704 1.70704,1.70704 l 31.66796,0 c 0.9375,0 1.70704,-0.76563 1.70704,-1.70704 l 0,-50.41796 c 0,-0.94141 -0.76954,-1.70704 -1.70704,-1.70704 z m 0,0"
         id="path30084" />
    </clipPath>
    <clipPath
       id="clip6113-3">
      <path
         d="m 364,455 5,0 0,5 -5,0 z m 0,0"
         id="path19074-5" />
    </clipPath>
    <clipPath
       id="clip6114-6">
      <path
         d="m 359.19922,446.56641 c -0.94141,0 -1.70703,0.76953 -1.70703,1.70703 l 0,50.41797 c 0,0.9414 0.76562,1.71093 1.70703,1.71093 l 31.66797,0 c 0.9375,0 1.70703,-0.76953 1.70703,-1.71093 l 0,-50.41797 c 0,-0.9375 -0.76953,-1.70703 -1.70703,-1.70703 z m 0,0"
         id="path19077-0" />
    </clipPath>
    <clipPath
       id="clip6582-6">
      <path
         d="m 366,455 2,0 0,4 -2,0 z m 0,0"
         id="path20553-2" />
    </clipPath>
    <clipPath
       id="clip6583-1">
      <path
         d="m 359.19922,446.56641 c -0.94141,0 -1.70703,0.76953 -1.70703,1.70703 l 0,50.41797 c 0,0.9414 0.76562,1.71093 1.70703,1.71093 l 31.66797,0 c 0.9375,0 1.70703,-0.76953 1.70703,-1.71093 l 0,-50.41797 c 0,-0.9375 -0.76953,-1.70703 -1.70703,-1.70703 z m 0,0"
         id="path20556-2" />
    </clipPath>
    <clipPath
       id="clip6113-3-0">
      <path
         d="m 364,455 5,0 0,5 -5,0 z m 0,0"
         id="path19074-5-5" />
    </clipPath>
    <clipPath
       id="clip6114-6-8">
      <path
         d="m 359.19922,446.56641 c -0.94141,0 -1.70703,0.76953 -1.70703,1.70703 l 0,50.41797 c 0,0.9414 0.76562,1.71093 1.70703,1.71093 l 31.66797,0 c 0.9375,0 1.70703,-0.76953 1.70703,-1.71093 l 0,-50.41797 c 0,-0.9375 -0.76953,-1.70703 -1.70703,-1.70703 z m 0,0"
         id="path19077-0-6" />
    </clipPath>
    <clipPath
       id="clip6582-6-8">
      <path
         d="m 366,455 2,0 0,4 -2,0 z m 0,0"
         id="path20553-2-7" />
    </clipPath>
    <clipPath
       id="clip6583-1-6">
      <path
         d="m 359.19922,446.56641 c -0.94141,0 -1.70703,0.76953 -1.70703,1.70703 l 0,50.41797 c 0,0.9414 0.76562,1.71093 1.70703,1.71093 l 31.66797,0 c 0.9375,0 1.70703,-0.76953 1.70703,-1.71093 l 0,-50.41797 c 0,-0.9375 -0.76953,-1.70703 -1.70703,-1.70703 z m 0,0"
         id="path20556-2-5" />
    </clipPath>
    <clipPath
       id="clip6580-7">
      <path
         d="m 365,457 3,0 0,2 -3,0 z m 0,0"
         id="path20547-5" />
    </clipPath>
    <clipPath
       id="clip6581-7">
      <path
         d="m 359.19922,446.56641 c -0.94141,0 -1.70703,0.76953 -1.70703,1.70703 l 0,50.41797 c 0,0.9414 0.76562,1.71093 1.70703,1.71093 l 31.66797,0 c 0.9375,0 1.70703,-0.76953 1.70703,-1.71093 l 0,-50.41797 c 0,-0.9375 -0.76953,-1.70703 -1.70703,-1.70703 z m 0,0"
         id="path20550-6" />
    </clipPath>
  </defs>
  <metadata
     id="metadata8888">
    <rdf:RDF>
      <cc:Work
         rdf:about="">
        <dc:format>image/svg+xml</dc:format>
        <dc:type
           rdf:resource="http://purl.org/dc/dcmitype/StillImage" />
        <dc:title></dc:title>
      </cc:Work>
    </rdf:RDF>
  </metadata>
  <g
     transform="translate(0,-1027.3622)"
     id="layer1">
    <g
       style="fill:#000000"
       transform="matrix(0,-10.711224,-10.706637,0,0,1039.8515)"
       id="g34042">
      <path
         id="path34044"
         style="fill:#000000;fill-opacity:1;fill-rule:nonzero;stroke:none"
         d="m 0,0 c 0.643,0 1.166,-0.524 1.166,-1.166 0,-0.645 -0.523,-1.169 -1.166,-1.169 -0.646,0 -1.168,0.524 -1.168,1.169 C -1.168,-0.524 -0.646,0 0,0" />
    </g>
    <g
       transform="matrix(0,-10.711224,-10.706637,0,21.216272,1039.7894)"
       id="g34046">
      <path
         id="path34048"
         style="fill:#ffffff;fill-opacity:1;fill-rule:nonzero;stroke:none"
         d="M 0,0 C 0.073,0.007 0.241,0.102 0.318,0.146 L 0.391,0.131 C 0.567,0.463 0.555,1.077 0.389,1.379 L 0.005,1.488 0.101,1.631 -0.413,1.544 -0.415,1.455 -0.054,1.286 -0.53,1.186 -0.289,1.026 -0.29,0.452 -0.53,0.304 0.276,0.154 -0.275,0.044 c 0,0 0.181,-0.052 0.275,-0.044" />
    </g>
  </g>
</svg>
