<?xml version="1.0" encoding="UTF-8" standalone="no"?>
<svg
   xmlns:dc="http://purl.org/dc/elements/1.1/"
   xmlns:cc="http://creativecommons.org/ns#"
   xmlns:rdf="http://www.w3.org/1999/02/22-rdf-syntax-ns#"
   xmlns:svg="http://www.w3.org/2000/svg"
   xmlns="http://www.w3.org/2000/svg"
   version="1.1"
   id="svg8883"
   viewBox="0 0 24.999999 24.999999"
   height="25"
   width="25">
  <defs
     id="defs8885">
    <clipPath
       id="clip9718">
      <path
         d="m 250,346 5,0 0,5 -5,0 z m 0,0"
         id="path30075" />
    </clipPath>
    <clipPath
       id="clip9719">
      <path
         d="m 240.44141,344.57812 c -0.9375,0 -1.70704,0.76563 -1.70704,1.70704 l 0,50.41796 c 0,0.94141 0.76954,1.70704 1.70704,1.70704 l 31.66796,0 c 0.9375,0 1.70704,-0.76563 1.70704,-1.70704 l 0,-50.41796 c 0,-0.94141 -0.76954,-1.70704 -1.70704,-1.70704 z m 0,0"
         id="path30078" />
    </clipPath>
    <clipPath
       id="clip9720">
      <path
         d="m 251,346 3,0 0,5 -3,0 z m 0,0"
         id="path30081" />
    </clipPath>
    <clipPath
       id="clip9721">
      <path
         d="m 240.44141,344.57812 c -0.9375,0 -1.70704,0.76563 -1.70704,1.70704 l 0,50.41796 c 0,0.94141 0.76954,1.70704 1.70704,1.70704 l 31.66796,0 c 0.9375,0 1.70704,-0.76563 1.70704,-1.70704 l 0,-50.41796 c 0,-0.94141 -0.76954,-1.70704 -1.70704,-1.70704 z m 0,0"
         id="path30084" />
    </clipPath>
    <clipPath
       id="clip6113-3">
      <path
         d="m 364,455 5,0 0,5 -5,0 z m 0,0"
         id="path19074-5" />
    </clipPath>
    <clipPath
       id="clip6114-6">
      <path
         d="m 359.19922,446.56641 c -0.94141,0 -1.70703,0.76953 -1.70703,1.70703 l 0,50.41797 c 0,0.9414 0.76562,1.71093 1.70703,1.71093 l 31.66797,0 c 0.9375,0 1.70703,-0.76953 1.70703,-1.71093 l 0,-50.41797 c 0,-0.9375 -0.76953,-1.70703 -1.70703,-1.70703 z m 0,0"
         id="path19077-0" />
    </clipPath>
    <clipPath
       id="clip6582-6">
      <path
         d="m 366,455 2,0 0,4 -2,0 z m 0,0"
         id="path20553-2" />
    </clipPath>
    <clipPath
       id="clip6583-1">
      <path
         d="m 359.19922,446.56641 c -0.94141,0 -1.70703,0.76953 -1.70703,1.70703 l 0,50.41797 c 0,0.9414 0.76562,1.71093 1.70703,1.71093 l 31.66797,0 c 0.9375,0 1.70703,-0.76953 1.70703,-1.71093 l 0,-50.41797 c 0,-0.9375 -0.76953,-1.70703 -1.70703,-1.70703 z m 0,0"
         id="path20556-2" />
    </clipPath>
    <clipPath
       id="clip6113-3-0">
      <path
         d="m 364,455 5,0 0,5 -5,0 z m 0,0"
         id="path19074-5-5" />
    </clipPath>
    <clipPath
       id="clip6114-6-8">
      <path
         d="m 359.19922,446.56641 c -0.94141,0 -1.70703,0.76953 -1.70703,1.70703 l 0,50.41797 c 0,0.9414 0.76562,1.71093 1.70703,1.71093 l 31.66797,0 c 0.9375,0 1.70703,-0.76953 1.70703,-1.71093 l 0,-50.41797 c 0,-0.9375 -0.76953,-1.70703 -1.70703,-1.70703 z m 0,0"
         id="path19077-0-6" />
    </clipPath>
    <clipPath
       id="clip6582-6-8">
      <path
         d="m 366,455 2,0 0,4 -2,0 z m 0,0"
         id="path20553-2-7" />
    </clipPath>
    <clipPath
       id="clip6583-1-6">
      <path
         d="m 359.19922,446.56641 c -0.94141,0 -1.70703,0.76953 -1.70703,1.70703 l 0,50.41797 c 0,0.9414 0.76562,1.71093 1.70703,1.71093 l 31.66797,0 c 0.9375,0 1.70703,-0.76953 1.70703,-1.71093 l 0,-50.41797 c 0,-0.9375 -0.76953,-1.70703 -1.70703,-1.70703 z m 0,0"
         id="path20556-2-5" />
    </clipPath>
    <clipPath
       id="clip6580-7">
      <path
         d="m 365,457 3,0 0,2 -3,0 z m 0,0"
         id="path20547-5" />
    </clipPath>
    <clipPath
       id="clip6581-7">
      <path
         d="m 359.19922,446.56641 c -0.94141,0 -1.70703,0.76953 -1.70703,1.70703 l 0,50.41797 c 0,0.9414 0.76562,1.71093 1.70703,1.71093 l 31.66797,0 c 0.9375,0 1.70703,-0.76953 1.70703,-1.71093 l 0,-50.41797 c 0,-0.9375 -0.76953,-1.70703 -1.70703,-1.70703 z m 0,0"
         id="path20550-6" />
    </clipPath>
  </defs>
  <metadata
     id="metadata8888">
    <rdf:RDF>
      <cc:Work
         rdf:about="">
        <dc:format>image/svg+xml</dc:format>
        <dc:type
           rdf:resource="http://purl.org/dc/dcmitype/StillImage" />
        <dc:title></dc:title>
      </cc:Work>
    </rdf:RDF>
  </metadata>
  <g
     transform="translate(0,-1027.3622)"
     id="layer1">
    <g
       style="fill:#000000"
       id="g56794"
       transform="matrix(0,-10.711224,-10.706637,0,0,1039.8515)">
      <path
         d="m 0,0 c 0.643,0 1.166,-0.523 1.166,-1.167 0,-0.645 -0.523,-1.168 -1.166,-1.168 -0.645,0 -1.168,0.523 -1.168,1.168 C -1.168,-0.523 -0.645,0 0,0"
         style="fill:#000000;fill-opacity:1;fill-rule:nonzero;stroke:none"
         id="path56796" />
    </g>
    <g
       id="g58546"
       transform="matrix(0,-10.711224,-10.706637,0,13.189505,1034.619)">
      <path
         d="m 0,0 0.14,0.02 0,-0.164 0.096,-0.041 0,0.497 L 0.14,0.29 0.14,0.094 0.001,0.121 c -0.028,0.293 -0.273,0.521 -0.574,0.521 -0.318,0 -0.578,-0.259 -0.578,-0.577 0,-0.319 0.26,-0.578 0.578,-0.578 C -0.276,-0.514 -0.031,-0.289 0,0"
         style="fill:#ffffff;fill-opacity:1;fill-rule:nonzero;stroke:none"
         id="path58548" />
    </g>
  </g>
</svg>
