<?xml version="1.0" encoding="UTF-8" standalone="no"?>
<svg
   xmlns:dc="http://purl.org/dc/elements/1.1/"
   xmlns:cc="http://creativecommons.org/ns#"
   xmlns:rdf="http://www.w3.org/1999/02/22-rdf-syntax-ns#"
   xmlns:svg="http://www.w3.org/2000/svg"
   xmlns="http://www.w3.org/2000/svg"
   version="1.1"
   id="svg8883"
   viewBox="0 0 24.999999 24.999999"
   height="25"
   width="25">
  <defs
     id="defs8885">
    <clipPath
       id="clip9718">
      <path
         d="m 250,346 5,0 0,5 -5,0 z m 0,0"
         id="path30075" />
    </clipPath>
    <clipPath
       id="clip9719">
      <path
         d="m 240.44141,344.57812 c -0.9375,0 -1.70704,0.76563 -1.70704,1.70704 l 0,50.41796 c 0,0.94141 0.76954,1.70704 1.70704,1.70704 l 31.66796,0 c 0.9375,0 1.70704,-0.76563 1.70704,-1.70704 l 0,-50.41796 c 0,-0.94141 -0.76954,-1.70704 -1.70704,-1.70704 z m 0,0"
         id="path30078" />
    </clipPath>
    <clipPath
       id="clip9720">
      <path
         d="m 251,346 3,0 0,5 -3,0 z m 0,0"
         id="path30081" />
    </clipPath>
    <clipPath
       id="clip9721">
      <path
         d="m 240.44141,344.57812 c -0.9375,0 -1.70704,0.76563 -1.70704,1.70704 l 0,50.41796 c 0,0.94141 0.76954,1.70704 1.70704,1.70704 l 31.66796,0 c 0.9375,0 1.70704,-0.76563 1.70704,-1.70704 l 0,-50.41796 c 0,-0.94141 -0.76954,-1.70704 -1.70704,-1.70704 z m 0,0"
         id="path30084" />
    </clipPath>
    <clipPath
       id="clip6113-3">
      <path
         d="m 364,455 5,0 0,5 -5,0 z m 0,0"
         id="path19074-5" />
    </clipPath>
    <clipPath
       id="clip6114-6">
      <path
         d="m 359.19922,446.56641 c -0.94141,0 -1.70703,0.76953 -1.70703,1.70703 l 0,50.41797 c 0,0.9414 0.76562,1.71093 1.70703,1.71093 l 31.66797,0 c 0.9375,0 1.70703,-0.76953 1.70703,-1.71093 l 0,-50.41797 c 0,-0.9375 -0.76953,-1.70703 -1.70703,-1.70703 z m 0,0"
         id="path19077-0" />
    </clipPath>
    <clipPath
       id="clip6582-6">
      <path
         d="m 366,455 2,0 0,4 -2,0 z m 0,0"
         id="path20553-2" />
    </clipPath>
    <clipPath
       id="clip6583-1">
      <path
         d="m 359.19922,446.56641 c -0.94141,0 -1.70703,0.76953 -1.70703,1.70703 l 0,50.41797 c 0,0.9414 0.76562,1.71093 1.70703,1.71093 l 31.66797,0 c 0.9375,0 1.70703,-0.76953 1.70703,-1.71093 l 0,-50.41797 c 0,-0.9375 -0.76953,-1.70703 -1.70703,-1.70703 z m 0,0"
         id="path20556-2" />
    </clipPath>
    <clipPath
       id="clip6113-3-0">
      <path
         d="m 364,455 5,0 0,5 -5,0 z m 0,0"
         id="path19074-5-5" />
    </clipPath>
    <clipPath
       id="clip6114-6-8">
      <path
         d="m 359.19922,446.56641 c -0.94141,0 -1.70703,0.76953 -1.70703,1.70703 l 0,50.41797 c 0,0.9414 0.76562,1.71093 1.70703,1.71093 l 31.66797,0 c 0.9375,0 1.70703,-0.76953 1.70703,-1.71093 l 0,-50.41797 c 0,-0.9375 -0.76953,-1.70703 -1.70703,-1.70703 z m 0,0"
         id="path19077-0-6" />
    </clipPath>
    <clipPath
       id="clip6582-6-8">
      <path
         d="m 366,455 2,0 0,4 -2,0 z m 0,0"
         id="path20553-2-7" />
    </clipPath>
    <clipPath
       id="clip6583-1-6">
      <path
         d="m 359.19922,446.56641 c -0.94141,0 -1.70703,0.76953 -1.70703,1.70703 l 0,50.41797 c 0,0.9414 0.76562,1.71093 1.70703,1.71093 l 31.66797,0 c 0.9375,0 1.70703,-0.76953 1.70703,-1.71093 l 0,-50.41797 c 0,-0.9375 -0.76953,-1.70703 -1.70703,-1.70703 z m 0,0"
         id="path20556-2-5" />
    </clipPath>
    <clipPath
       id="clip6580-7">
      <path
         d="m 365,457 3,0 0,2 -3,0 z m 0,0"
         id="path20547-5" />
    </clipPath>
    <clipPath
       id="clip6581-7">
      <path
         d="m 359.19922,446.56641 c -0.94141,0 -1.70703,0.76953 -1.70703,1.70703 l 0,50.41797 c 0,0.9414 0.76562,1.71093 1.70703,1.71093 l 31.66797,0 c 0.9375,0 1.70703,-0.76953 1.70703,-1.71093 l 0,-50.41797 c 0,-0.9375 -0.76953,-1.70703 -1.70703,-1.70703 z m 0,0"
         id="path20550-6" />
    </clipPath>
  </defs>
  <metadata
     id="metadata8888">
    <rdf:RDF>
      <cc:Work
         rdf:about="">
        <dc:format>image/svg+xml</dc:format>
        <dc:type
           rdf:resource="http://purl.org/dc/dcmitype/StillImage" />
        <dc:title></dc:title>
      </cc:Work>
    </rdf:RDF>
  </metadata>
  <g
     transform="translate(0,-1027.3622)"
     id="layer1">
    <g
       style="fill:#000000"
       id="g48918"
       transform="matrix(0,-10.715815,-10.706637,0,0,1039.8568)">
      <path
         d="m 0,0 c 0.644,0 1.166,-0.524 1.166,-1.167 0,-0.644 -0.522,-1.168 -1.166,-1.168 -0.646,0 -1.167,0.524 -1.167,1.168 C -1.167,-0.524 -0.646,0 0,0"
         style="fill:#000000;fill-opacity:1;fill-rule:nonzero;stroke:none"
         id="path48920" />
    </g>
    <g
       id="g49502"
       transform="matrix(0,-10.715815,-10.706637,0,21.473231,1039.8697)">
      <path
         d="M 0,0 C 0.074,0 0.146,0.161 0.207,0.342 0.376,0.256 0.543,0.194 0.593,0.246 0.645,0.297 0.584,0.462 0.498,0.631 c 0.181,0.06 0.34,0.133 0.34,0.207 0,0.074 -0.159,0.146 -0.34,0.206 C 0.584,1.213 0.645,1.379 0.593,1.43 0.543,1.482 0.376,1.422 0.207,1.335 0.146,1.515 0.074,1.676 0,1.676 -0.073,1.676 -0.146,1.515 -0.206,1.335 -0.376,1.422 -0.54,1.482 -0.592,1.43 -0.645,1.379 -0.581,1.213 -0.497,1.044 -0.677,0.984 -0.838,0.912 -0.838,0.838 -0.838,0.764 -0.677,0.691 -0.497,0.631 -0.581,0.462 -0.645,0.297 -0.592,0.246 -0.54,0.194 -0.376,0.256 -0.206,0.342 -0.146,0.161 -0.073,0 0,0"
         style="fill:#ffffff;fill-opacity:1;fill-rule:nonzero;stroke:none"
         id="path49504" />
    </g>
    <g
       style="fill:#000000"
       id="g49506"
       transform="matrix(0,-10.715815,-10.706637,0,12.498928,1043.4574)">
      <path
         d="M 0,0 C 0,0.185 0.15,0.335 0.335,0.335 0.52,0.335 0.671,0.185 0.671,0 0.671,-0.186 0.52,-0.334 0.335,-0.334 0.15,-0.334 0,-0.186 0,0"
         style="fill:#000000;fill-opacity:1;fill-rule:nonzero;stroke:none"
         id="path49508" />
    </g>
  </g>
</svg>
