<?xml version="1.0" encoding="UTF-8" standalone="no"?>
<svg
   xmlns:dc="http://purl.org/dc/elements/1.1/"
   xmlns:cc="http://creativecommons.org/ns#"
   xmlns:rdf="http://www.w3.org/1999/02/22-rdf-syntax-ns#"
   xmlns:svg="http://www.w3.org/2000/svg"
   xmlns="http://www.w3.org/2000/svg"
   xmlns:sodipodi="http://sodipodi.sourceforge.net/DTD/sodipodi-0.dtd"
   xmlns:inkscape="http://www.inkscape.org/namespaces/inkscape"
   version="1.1"
   id="svg8883"
   viewBox="0 0 24.999999 24.999999"
   height="25"
   width="25"
   inkscape:version="0.91 r13725"
   sodipodi:docname="suitcase.svg">
  <sodipodi:namedview
     pagecolor="#ffffff"
     bordercolor="#666666"
     borderopacity="1"
     objecttolerance="10"
     gridtolerance="10"
     guidetolerance="10"
     inkscape:pageopacity="0"
     inkscape:pageshadow="2"
     inkscape:window-width="1873"
     inkscape:window-height="1056"
     id="namedview17"
     showgrid="false"
     inkscape:zoom="1"
     inkscape:cx="69.013946"
     inkscape:cy="-15.343664"
     inkscape:window-x="1967"
     inkscape:window-y="24"
     inkscape:window-maximized="1"
     inkscape:current-layer="svg8883" />
  <defs
     id="defs8885">
    <clipPath
       id="clip9718">
      <path
         d="m 250,346 5,0 0,5 -5,0 z m 0,0"
         id="path30075" />
    </clipPath>
    <clipPath
       id="clip9719">
      <path
         d="m 240.44141,344.57812 c -0.9375,0 -1.70704,0.76563 -1.70704,1.70704 l 0,50.41796 c 0,0.94141 0.76954,1.70704 1.70704,1.70704 l 31.66796,0 c 0.9375,0 1.70704,-0.76563 1.70704,-1.70704 l 0,-50.41796 c 0,-0.94141 -0.76954,-1.70704 -1.70704,-1.70704 z m 0,0"
         id="path30078" />
    </clipPath>
    <clipPath
       id="clip9720">
      <path
         d="m 251,346 3,0 0,5 -3,0 z m 0,0"
         id="path30081" />
    </clipPath>
    <clipPath
       id="clip9721">
      <path
         d="m 240.44141,344.57812 c -0.9375,0 -1.70704,0.76563 -1.70704,1.70704 l 0,50.41796 c 0,0.94141 0.76954,1.70704 1.70704,1.70704 l 31.66796,0 c 0.9375,0 1.70704,-0.76563 1.70704,-1.70704 l 0,-50.41796 c 0,-0.94141 -0.76954,-1.70704 -1.70704,-1.70704 z m 0,0"
         id="path30084" />
    </clipPath>
  </defs>
  <metadata
     id="metadata8888">
    <rdf:RDF>
      <cc:Work
         rdf:about="">
        <dc:format>image/svg+xml</dc:format>
        <dc:type
           rdf:resource="http://purl.org/dc/dcmitype/StillImage" />
        <dc:title />
      </cc:Work>
    </rdf:RDF>
  </metadata>
  <g
     id="g2552"
     transform="matrix(0,-10.711224,-10.711224,0,0,12.4893)"
     style="fill:#000000">
    <path
       inkscape:connector-curvature="0"
       d="m 0,0 c 0.643,0 1.166,-0.524 1.166,-1.169 0,-0.642 -0.523,-1.165 -1.166,-1.165 -0.646,0 -1.168,0.523 -1.168,1.165 C -1.168,-0.524 -0.646,0 0,0"
       style="fill:#000000;fill-opacity:1;fill-rule:nonzero;stroke:none"
       id="path2554" />
  </g>
  <rect
     style="opacity:1;fill:#ffffff;fill-opacity:1;stroke:none;stroke-width:16;stroke-linejoin:miter;stroke-miterlimit:4;stroke-dasharray:none;stroke-opacity:1"
     id="rect4150"
     width="17.415974"
     height="9.9999447"
     x="3.7920117"
     y="8.5625257"
     ry="0.60911012" />
  <rect
     style="opacity:1;fill:none;fill-opacity:1;stroke:#ffffff;stroke-width:0.99999988;stroke-linejoin:miter;stroke-miterlimit:4;stroke-dasharray:none;stroke-opacity:1"
     id="rect4150-8"
     width="9.2528372"
     height="7.1768637"
     x="5.7181196"
     y="-16.08843"
     ry="3.0021179"
     transform="matrix(0,1,-1,0,0,0)" />
</svg>
