<?xml version="1.0" encoding="UTF-8" standalone="no"?>
<svg
   xmlns:dc="http://purl.org/dc/elements/1.1/"
   xmlns:cc="http://creativecommons.org/ns#"
   xmlns:rdf="http://www.w3.org/1999/02/22-rdf-syntax-ns#"
   xmlns:svg="http://www.w3.org/2000/svg"
   xmlns="http://www.w3.org/2000/svg"
   version="1.1"
   id="svg8883"
   viewBox="0 0 24.999999 24.999999"
   height="25"
   width="25">
  <defs
     id="defs8885">
    <clipPath
       id="clip9718">
      <path
         d="m 250,346 5,0 0,5 -5,0 z m 0,0"
         id="path30075" />
    </clipPath>
    <clipPath
       id="clip9719">
      <path
         d="m 240.44141,344.57812 c -0.9375,0 -1.70704,0.76563 -1.70704,1.70704 l 0,50.41796 c 0,0.94141 0.76954,1.70704 1.70704,1.70704 l 31.66796,0 c 0.9375,0 1.70704,-0.76563 1.70704,-1.70704 l 0,-50.41796 c 0,-0.94141 -0.76954,-1.70704 -1.70704,-1.70704 z m 0,0"
         id="path30078" />
    </clipPath>
    <clipPath
       id="clip9720">
      <path
         d="m 251,346 3,0 0,5 -3,0 z m 0,0"
         id="path30081" />
    </clipPath>
    <clipPath
       id="clip9721">
      <path
         d="m 240.44141,344.57812 c -0.9375,0 -1.70704,0.76563 -1.70704,1.70704 l 0,50.41796 c 0,0.94141 0.76954,1.70704 1.70704,1.70704 l 31.66796,0 c 0.9375,0 1.70704,-0.76563 1.70704,-1.70704 l 0,-50.41796 c 0,-0.94141 -0.76954,-1.70704 -1.70704,-1.70704 z m 0,0"
         id="path30084" />
    </clipPath>
  </defs>
  <metadata
     id="metadata8888">
    <rdf:RDF>
      <cc:Work
         rdf:about="">
        <dc:format>image/svg+xml</dc:format>
        <dc:type
           rdf:resource="http://purl.org/dc/dcmitype/StillImage" />
        <dc:title></dc:title>
      </cc:Work>
    </rdf:RDF>
  </metadata>
  <g
     transform="translate(0,-1027.3622)"
     id="layer1">
    <g
       style="fill:#000000"
       transform="matrix(0,-10.706637,-10.711224,0,0,1039.8461)"
       id="g31886">
      <path
         id="path31888"
         style="fill:#000000;fill-opacity:1;fill-rule:nonzero;stroke:none"
         d="m 0,0 c 0.643,0 1.166,-0.523 1.166,-1.167 0,-0.644 -0.523,-1.167 -1.166,-1.167 -0.646,0 -1.169,0.523 -1.169,1.167 C -1.169,-0.523 -0.646,0 0,0" />
    </g>
    <g
       transform="matrix(0,-10.706637,-10.711224,0,20.368463,1035.527)"
       id="g31890">
      <path
         id="path31892"
         style="fill:#ffffff;fill-opacity:1;fill-rule:nonzero;stroke:none"
         d="m 0,0 c -0.001,0.001 -0.039,0.049 -0.091,0.118 0.02,0.027 0.014,0.074 -0.015,0.119 -0.031,0.043 -0.076,0.066 -0.109,0.061 -0.015,0.021 -0.03,0.048 -0.041,0.069 0.028,0.019 0.034,0.072 0.015,0.123 -0.018,0.048 -0.057,0.08 -0.09,0.084 -0.012,0.059 -0.022,0.12 -0.028,0.172 0.015,-0.003 0.024,0 0.037,0.003 C -0.312,0.736 -0.299,0.723 -0.288,0.71 -0.306,0.681 -0.298,0.632 -0.264,0.59 -0.228,0.547 -0.18,0.527 -0.148,0.538 -0.13,0.518 -0.113,0.497 -0.097,0.477 -0.115,0.45 -0.11,0.403 -0.079,0.359 -0.048,0.315 0.002,0.29 0.037,0.301 0.05,0.281 0.065,0.262 0.077,0.244 0.058,0.217 0.061,0.167 0.092,0.125 0.121,0.079 0.168,0.054 0.201,0.062 0.21,0.051 0.217,0.04 0.225,0.03 0.253,-0.015 0.283,-0.054 0.31,-0.097 l 0.03,0.021 C 0.311,-0.035 0.283,0.005 0.253,0.05 0.247,0.061 0.239,0.07 0.232,0.081 0.251,0.108 0.247,0.157 0.217,0.202 0.187,0.244 0.142,0.27 0.107,0.262 0.094,0.281 0.078,0.302 0.063,0.323 0.081,0.352 0.074,0.398 0.045,0.439 c -0.033,0.044 -0.079,0.068 -0.113,0.06 -0.017,0.019 -0.033,0.04 -0.051,0.062 0.016,0.03 0.007,0.076 -0.026,0.118 -0.035,0.04 -0.081,0.059 -0.113,0.05 -0.013,0.016 -0.027,0.03 -0.04,0.047 0.001,0.006 0.003,0.012 0.004,0.021 C -0.25,0.786 -0.195,0.772 -0.143,0.754 -0.144,0.723 -0.129,0.687 -0.093,0.657 -0.049,0.617 0.01,0.607 0.04,0.633 0.053,0.621 0.065,0.61 0.078,0.595 0.07,0.566 0.082,0.525 0.111,0.49 0.148,0.446 0.199,0.426 0.231,0.441 0.295,0.372 0.343,0.318 0.344,0.317 L 0.371,0.339 C 0.366,0.347 0.319,0.4 0.257,0.467 0.27,0.495 0.262,0.539 0.228,0.578 0.189,0.625 0.134,0.643 0.101,0.623 0.086,0.637 0.07,0.652 0.057,0.666 0.06,0.694 0.042,0.733 0.006,0.762 -0.04,0.804 -0.103,0.814 -0.13,0.785 -0.19,0.805 -0.252,0.823 -0.299,0.834 -0.304,0.851 -0.315,0.87 -0.327,0.887 -0.331,0.89 -0.334,0.891 -0.337,0.892 -0.326,0.89 -0.319,0.884 -0.307,0.88 -0.252,0.858 -0.195,0.868 -0.175,0.901 l 0.104,-0.026 0.01,0.035 -0.108,0.026 c -0.001,0.011 -0.007,0.022 -0.014,0.031 0.2,-0.021 0.44,0.022 0.44,0.022 0,0 -0.197,0.016 -0.372,0.086 C -0.283,1.139 -0.337,1.173 -0.513,1.243 -0.59,1.271 -0.691,1.282 -0.768,1.285 -0.802,1.33 -0.842,1.368 -0.88,1.4 -0.894,1.415 -0.907,1.427 -0.922,1.443 L -0.925,1.439 c -0.08,0.067 -0.145,0.104 -0.145,0.104 0,0 0.183,-0.242 0.274,-0.547 0.099,-0.329 0.283,-1.011 0.283,-1.011 0,0 -0.008,0.347 -0.044,0.663 0.014,-0.018 0.03,-0.029 0.046,-0.035 l 0.034,-0.179 0.034,0.006 -0.031,0.177 c 0.032,0.016 0.046,0.066 0.032,0.121 -0.013,0.045 -0.041,0.081 -0.072,0.093 l -0.029,0.161 0.002,0 C -0.517,0.967 -0.493,0.942 -0.471,0.916 -0.489,0.888 -0.479,0.838 -0.447,0.798 -0.431,0.78 -0.414,0.767 -0.396,0.757 -0.391,0.705 -0.38,0.633 -0.365,0.565 -0.393,0.545 -0.401,0.494 -0.38,0.442 -0.362,0.394 -0.324,0.363 -0.293,0.358 -0.278,0.333 -0.262,0.305 -0.246,0.28 -0.267,0.254 -0.262,0.203 -0.232,0.159 c 0.031,-0.045 0.077,-0.07 0.113,-0.063 0.048,-0.066 0.086,-0.114 0.091,-0.121" />
    </g>
    <g
       transform="matrix(0,-10.706637,-10.711224,0,9.529775,1039.4114)"
       id="g31894">
      <path
         id="path31896"
         style="fill:#ffffff;fill-opacity:1;fill-rule:nonzero;stroke:none"
         d="M 0,0 C -0.01,-0.006 -0.016,-0.013 -0.02,-0.022 L -0.161,0.013 C -0.187,0.043 -0.217,0.074 -0.247,0.107 -0.174,0.07 -0.091,0.032 0,0" />
    </g>
    <g
       transform="matrix(0,-10.706637,-10.711224,0,11.463152,1041.4124)"
       id="g31898">
      <path
         id="path31900"
         style="fill:#ffffff;fill-opacity:1;fill-rule:nonzero;stroke:none"
         d="M 0,0 C -0.011,-0.004 -0.019,-0.013 -0.027,-0.025 -0.046,0.101 -0.071,0.21 -0.1,0.276 -0.102,0.278 -0.103,0.281 -0.107,0.284 -0.082,0.259 -0.058,0.233 -0.036,0.21 l -0.001,0" />
    </g>
    <g
       transform="matrix(0,-10.706637,-10.711224,0,10.141386,1039.6566)"
       id="g31902">
      <path
         id="path31904"
         style="fill:#ffffff;fill-opacity:1;fill-rule:nonzero;stroke:none"
         d="m 0,0 c 0.003,-0.011 0.007,-0.022 0.018,-0.034 -0.025,0.017 -0.053,0.023 -0.074,0.017 -0.014,0.014 -0.026,0.027 -0.037,0.04" />
    </g>
  </g>
</svg>
